HIERARCHY
ROOT Hips
{
  OFFSET 5.80788e-005 67.184 3.4734
  CHANNELS 6 Xposition Yposition Zposition Zrotation Xrotation Yrotation
  JOINT Chest
  {
    OFFSET 0 8.7983 -4.7612
    CHANNELS 6 Xposition Yposition Zposition Zrotation Xrotation Yrotation
    JOINT Chest2
    {
      OFFSET 0 8.0291 0.4195
      CHANNELS 6 Xposition Yposition Zposition Zrotation Xrotation Yrotation
      JOINT Chest3
      {
        OFFSET 0 9.9351 -2.2114
        CHANNELS 6 Xposition Yposition Zposition Zrotation Xrotation Yrotation
        JOINT Neck
        {
          OFFSET 0 22.3885 -0.4656
          CHANNELS 6 Xposition Yposition Zposition Zrotation Xrotation Yrotation
          JOINT Head
          {
            OFFSET -0.0001 12.643 3.4389
            CHANNELS 6 Xposition Yposition Zposition Zrotation Xrotation Yrotation
            End Site
            {
              OFFSET 0.0001 17.6655 0.5274
            }
          }
        }
        JOINT LeftCollar
        {
          OFFSET 2.2603 21.606 7.4023
          CHANNELS 6 Xposition Yposition Zposition Zrotation Xrotation Yrotation
          JOINT LeftShoulder
          {
            OFFSET 13.5163 -1.1332 -5.0146
            CHANNELS 6 Xposition Yposition Zposition Zrotation Xrotation Yrotation
            JOINT LeftElbow
            {
              OFFSET -0.0995 -28.05 -0.2431
              CHANNELS 6 Xposition Yposition Zposition Zrotation Xrotation Yrotation
              JOINT LeftWrist
              {
                OFFSET 0.0679 -23.3996 -0.1402
                CHANNELS 6 Xposition Yposition Zposition Zrotation Xrotation Yrotation
                JOINT LeftFinger1
                {
                  OFFSET 0.7932 -9.069 2.5189
                  CHANNELS 6 Xposition Yposition Zposition Zrotation Xrotation Yrotation
                  JOINT LeftFinger11
                  {
                    OFFSET -0.8272 -3.3923 0.5977
                    CHANNELS 6 Xposition Yposition Zposition Zrotation Xrotation Yrotation
                    JOINT LeftFinger12
                    {
                      OFFSET -0.5649 -2.3158 0.4082
                      CHANNELS 6 Xposition Yposition Zposition Zrotation Xrotation Yrotation
                      End Site
                      {
                        OFFSET -0.4919 -1.6479 0.2673
                      }
                    }
                  }
                }
                JOINT LeftFinger2
                {
                  OFFSET 0.9159 -9.2044 0.2193
                  CHANNELS 6 Xposition Yposition Zposition Zrotation Xrotation Yrotation
                  JOINT LeftFinger21
                  {
                    OFFSET 0.0117 -4.1944 -0.0248
                    CHANNELS 6 Xposition Yposition Zposition Zrotation Xrotation Yrotation
                    JOINT LeftFinger22
                    {
                      OFFSET 0.0071 -2.3249 -0.0142
                      CHANNELS 6 Xposition Yposition Zposition Zrotation Xrotation Yrotation
                      End Site
                      {
                        OFFSET -0.1475 -2.0882 0.0028
                      }
                    }
                  }
                }
                JOINT LeftFinger3
                {
                  OFFSET 0.6113 -8.7231 -2.0637
                  CHANNELS 6 Xposition Yposition Zposition Zrotation Xrotation Yrotation
                  JOINT LeftFinger31
                  {
                    OFFSET -0.1927 -3.8059 -0.2383
                    CHANNELS 6 Xposition Yposition Zposition Zrotation Xrotation Yrotation
                    JOINT LeftFinger32
                    {
                      OFFSET -0.1091 -2.1688 -0.1362
                      CHANNELS 6 Xposition Yposition Zposition Zrotation Xrotation Yrotation
                      End Site
                      {
                        OFFSET -0.2358 -1.9176 -0.0906
                      }
                    }
                  }
                }
                JOINT LeftFinger4
                {
                  OFFSET -0.6151 -8.0947 -3.5641
                  CHANNELS 6 Xposition Yposition Zposition Zrotation Xrotation Yrotation
                  JOINT LeftFinger41
                  {
                    OFFSET -0.4882 -2.341 -0.6462
                    CHANNELS 6 Xposition Yposition Zposition Zrotation Xrotation Yrotation
                    JOINT LeftFinger42
                    {
                      OFFSET -0.3575 -1.7167 -0.4742
                      CHANNELS 6 Xposition Yposition Zposition Zrotation Xrotation Yrotation
                      End Site
                      {
                        OFFSET -0.4187 -1.5237 -0.3496
                      }
                    }
                  }
                }
                JOINT LeftFinger0
                {
                  OFFSET -1.42 -1.8761 1.4223
                  CHANNELS 6 Xposition Yposition Zposition Zrotation Xrotation Yrotation
                  JOINT LeftFinger01
                  {
                    OFFSET -1.1471 -3.4929 2.6334
                    CHANNELS 6 Xposition Yposition Zposition Zrotation Xrotation Yrotation
                    JOINT LeftFinger02
                    {
                      OFFSET -0.823 -2.3 1.6571
                      CHANNELS 6 Xposition Yposition Zposition Zrotation Xrotation Yrotation
                      End Site
                      {
                        OFFSET -0.5822 -1.6914 1.1582
                      }
                    }
                  }
                }
              }
            }
          }
        }
        JOINT RightCollar
        {
          OFFSET -2.2603 21.606 7.4023
          CHANNELS 6 Xposition Yposition Zposition Zrotation Xrotation Yrotation
          JOINT RightShoulder
          {
            OFFSET -13.5187 -1.1334 -5.0155
            CHANNELS 6 Xposition Yposition Zposition Zrotation Xrotation Yrotation
            JOINT RightElbow
            {
              OFFSET 0.0994 -28.0499 -0.2431
              CHANNELS 6 Xposition Yposition Zposition Zrotation Xrotation Yrotation
              JOINT RightWrist
              {
                OFFSET -0.0679 -23.3996 -0.1402
                CHANNELS 6 Xposition Yposition Zposition Zrotation Xrotation Yrotation
                JOINT RightFinger1
                {
                  OFFSET -0.7932 -9.0691 2.5189
                  CHANNELS 6 Xposition Yposition Zposition Zrotation Xrotation Yrotation
                  JOINT RightFinger11
                  {
                    OFFSET 0.8272 -3.3923 0.5977
                    CHANNELS 6 Xposition Yposition Zposition Zrotation Xrotation Yrotation
                    JOINT RightFinger12
                    {
                      OFFSET 0.565 -2.3158 0.4082
                      CHANNELS 6 Xposition Yposition Zposition Zrotation Xrotation Yrotation
                      End Site
                      {
                        OFFSET 0.4919 -1.6479 0.2673
                      }
                    }
                  }
                }
                JOINT RightFinger2
                {
                  OFFSET -0.916 -9.2044 0.2193
                  CHANNELS 6 Xposition Yposition Zposition Zrotation Xrotation Yrotation
                  JOINT RightFinger21
                  {
                    OFFSET -0.0117 -4.1944 -0.0248
                    CHANNELS 6 Xposition Yposition Zposition Zrotation Xrotation Yrotation
                    JOINT RightFinger22
                    {
                      OFFSET -0.0071 -2.3249 -0.0142
                      CHANNELS 6 Xposition Yposition Zposition Zrotation Xrotation Yrotation
                      End Site
                      {
                        OFFSET 0.1475 -2.0882 0.0028
                      }
                    }
                  }
                }
                JOINT RightFinger3
                {
                  OFFSET -0.6113 -8.7231 -2.0637
                  CHANNELS 6 Xposition Yposition Zposition Zrotation Xrotation Yrotation
                  JOINT RightFinger31
                  {
                    OFFSET 0.1927 -3.8059 -0.2383
                    CHANNELS 6 Xposition Yposition Zposition Zrotation Xrotation Yrotation
                    JOINT RightFinger32
                    {
                      OFFSET 0.1091 -2.1688 -0.1362
                      CHANNELS 6 Xposition Yposition Zposition Zrotation Xrotation Yrotation
                      End Site
                      {
                        OFFSET 0.2358 -1.9176 -0.0906
                      }
                    }
                  }
                }
                JOINT RightFinger4
                {
                  OFFSET 0.6151 -8.0947 -3.564
                  CHANNELS 6 Xposition Yposition Zposition Zrotation Xrotation Yrotation
                  JOINT RightFinger41
                  {
                    OFFSET 0.4882 -2.341 -0.6462
                    CHANNELS 6 Xposition Yposition Zposition Zrotation Xrotation Yrotation
                    JOINT RightFinger42
                    {
                      OFFSET 0.3574 -1.7166 -0.4742
                      CHANNELS 6 Xposition Yposition Zposition Zrotation Xrotation Yrotation
                      End Site
                      {
                        OFFSET 0.4187 -1.5237 -0.3496
                      }
                    }
                  }
                }
                JOINT RightFinger0
                {
                  OFFSET 1.4199 -1.8761 1.4221
                  CHANNELS 6 Xposition Yposition Zposition Zrotation Xrotation Yrotation
                  JOINT RightFinger01
                  {
                    OFFSET 1.1472 -3.4929 2.6336
                    CHANNELS 6 Xposition Yposition Zposition Zrotation Xrotation Yrotation
                    JOINT RightFinger02
                    {
                      OFFSET 0.8229 -2.3 1.6571
                      CHANNELS 6 Xposition Yposition Zposition Zrotation Xrotation Yrotation
                      End Site
                      {
                        OFFSET 0.5822 -1.6914 1.1582
                      }
                    }
                  }
                }
              }
            }
          }
        }
      }
    }
  }
  JOINT RightHip
  {
    OFFSET -9.412 3.9771 -0.7758
    CHANNELS 6 Xposition Yposition Zposition Zrotation Xrotation Yrotation
    JOINT RightKnee
    {
      OFFSET -0.7531 -40.938 0
      CHANNELS 6 Xposition Yposition Zposition Zrotation Xrotation Yrotation
      JOINT RightAnkle
      {
        OFFSET 0 -40.1986 0
        CHANNELS 6 Xposition Yposition Zposition Zrotation Xrotation Yrotation
        JOINT RightToe
        {
          OFFSET 0 -4.4182 9.239
          CHANNELS 6 Xposition Yposition Zposition Zrotation Xrotation Yrotation
          End Site
          {
            OFFSET 0 0 6.1981
          }
        }
      }
    }
  }
  JOINT LeftHip
  {
    OFFSET 9.4119 3.9773 -0.7758
    CHANNELS 6 Xposition Yposition Zposition Zrotation Xrotation Yrotation
    JOINT LeftKnee
    {
      OFFSET 0.7532 -40.9383 0
      CHANNELS 6 Xposition Yposition Zposition Zrotation Xrotation Yrotation
      JOINT LeftAnkle
      {
        OFFSET 0 -40.1986 0
        CHANNELS 6 Xposition Yposition Zposition Zrotation Xrotation Yrotation
        JOINT LeftToe
        {
          OFFSET 0 -4.4182 9.239
          CHANNELS 6 Xposition Yposition Zposition Zrotation Xrotation Yrotation
          End Site
          {
            OFFSET 0 0 6.1981
          }
        }
      }
    }
  }
}
MOTION
Frames:	4
Frame Time:	0.0333333
5.80788e-005 67.184 3.4734 0 0 -0 0 8.7983 -4.7612 0 0 -0 0 8.0291 0.4195 0 0 -0 0 9.9351 -2.2114 0 0 -0 0 22.3885 -0.4656 0 0 -0 -0.0001 12.643 3.4389 0 0 -0 2.2603 21.606 7.4023 0 0 -12.5014 13.5163 -1.1332 -5.0146 88.1196 14.2451 10.6914 -0.0995 -28.05 -0.2431 -0.00160068 -0.00239207 0.000740045 0.0679 -23.3996 -0.1402 -8.4365e-005 7.00714e-005 -9.52055e-007 0.7932 -9.069 2.5189 9.93923e-017 -1.98785e-016 -1.59028e-015 -0.8272 -3.3923 0.5977 9.93923e-017 -5.96354e-016 -1.59028e-015 -0.5649 -2.3158 0.4082 -9.93923e-017 -5.96354e-016 -1.59028e-015 0.9159 -9.2044 0.2193 9.93923e-017 -1.98785e-016 -1.59028e-015 0.0117 -4.1944 -0.0248 -0.0128176 0.00232552 8.52707e-005 0.0071 -2.3249 -0.0142 9.93923e-017 5.96354e-016 -0 0.6113 -8.7231 -2.0637 9.93923e-017 -1.98785e-016 -1.59028e-015 -0.1927 -3.8059 -0.2383 -0.0160551 0.00299681 0.000857156 -0.1091 -2.1688 -0.1362 -2.48481e-016 0 3.18055e-015 -0.6151 -8.0947 -3.5641 9.93923e-017 -1.98785e-016 -1.59028e-015 -0.4882 -2.341 -0.6462 -0.0125865 0.0031206 0.00282719 -0.3575 -1.7167 -0.4742 0 1.98785e-016 -0 -1.42 -1.8761 1.4223 9.93923e-017 -1.98785e-016 -1.59028e-015 -1.1471 -3.4929 2.6334 9.93923e-017 -5.96354e-016 -1.59028e-015 -0.823 -2.3 1.6571 -9.93923e-017 -5.96354e-016 -1.59028e-015 -2.2603 21.606 7.4023 -0.865644 0.16582 7.03859 -13.5187 -1.1334 -5.0155 -88.0329 10.2057 -10.5567 0.0994 -28.0499 -0.2431 0.0015593 -0.00248883 -0.000788628 -0.0679 -23.3996 -0.1402 7.87605e-005 4.10553e-005 1.24965e-005 -0.7932 -9.0691 2.5189 -3.97569e-016 -7.95139e-016 3.18055e-015 0.8272 -3.3923 0.5977 -1.98785e-016 -3.97569e-016 3.18055e-015 0.565 -2.3158 0.4082 -1.98785e-016 0 3.18055e-015 -0.916 -9.2044 0.2193 -3.97569e-016 -7.95139e-016 3.18055e-015 -0.0117 -4.1944 -0.0248 0.0129473 0.00231697 -8.70038e-005 -0.0071 -2.3249 -0.0142 9.93923e-017 -7.95139e-016 1.59028e-015 -0.6113 -8.7231 -2.0637 -3.97569e-016 -7.95139e-016 3.18055e-015 0.1927 -3.8059 -0.2383 0.0163314 0.00303369 -0.000872333 0.1091 -2.1688 -0.1362 3.97569e-016 7.95139e-016 -3.18055e-015 0.6151 -8.0947 -3.564 -3.97569e-016 -7.95139e-016 3.18055e-015 0.4882 -2.341 -0.6462 0.0145763 0.00367772 -0.00326275 0.3574 -1.7166 -0.4742 9.93923e-017 -3.97569e-016 -0 1.4199 -1.8761 1.4221 -3.97569e-016 -7.95139e-016 3.18055e-015 1.1472 -3.4929 2.6336 -1.98785e-016 -3.97569e-016 3.18055e-015 0.8229 -2.3 1.6571 -1.98785e-016 0 3.18055e-015 -9.412 3.9771 -0.7758 3.42485 1.36937 -0.0640303 -0.7531 -40.938 0 0.000136572 0.69354 0.00145564 1.77636e-015 -40.1986 -1.11022e-016 -3.42573 -2.06297 -0.0607933 8.88178e-016 -4.4182 9.239 -3.19502e-024 0 -1.48106e-024 9.4119 3.9773 -0.7758 -3.42498 1.36123 0.0639712 0.7532 -40.9383 2.22045e-016 -6.769e-005 0.712612 -0.0012277 8.88179e-016 -40.1986 0 3.42582 -2.07388 0.0612819 -8.88178e-016 -4.4182 9.239 2.55305e-023 0 -2.31416e-026 
6.33606e-005 28.5694 -22.9059 1.55851e-008 -50.6261 1.39214e-008 0 8.7983 -4.7612 -0.0353773 4.79548 -0.0617814 3.46945e-018 8.0291 0.4195 -0.0658925 9.59095 -0.12122 -2.77556e-017 9.9351 -2.2114 -0.0658926 9.59099 -0.12122 0 22.3885 -0.4656 -2.40607e-007 10.157 -6.29603e-007 -0.0001 12.643 3.4389 1.24536e-008 5.10756 9.53345e-009 2.2603 21.606 7.4023 0.317976 0.301778 -7.63747 13.5163 -1.1332 -5.0146 41.0227 27.3518 20.357 -0.0995 -28.05 -0.2431 -8.66098 -40.9463 -23.4611 0.0679 -23.3996 -0.1402 -3.37217 1.12155 -13.3881 0.7932 -9.069 2.5189 -6.4605e-015 9.54166e-015 -3.57812e-015 -0.8272 -3.3923 0.5977 -3.55704e-007 -1.15145e-006 -4.00913e-006 -0.5649 -2.3158 0.4082 8.54774e-015 0 -3.08116e-015 0.9159 -9.2044 0.2193 -6.4605e-015 9.54166e-015 -3.57812e-015 0.0117 -4.1944 -0.0248 -0.0127941 0.00231953 7.81473e-005 0.0071 -2.3249 -0.0142 -4.28595e-006 1.16623e-006 1.0962e-006 0.6113 -8.7231 -2.0637 -6.4605e-015 9.54166e-015 -3.57812e-015 -0.1927 -3.8059 -0.2383 -0.0160782 0.00300441 0.000852163 -0.1091 -2.1688 -0.1362 -7.45443e-015 6.36111e-015 -3.37934e-015 -0.6151 -8.0947 -3.5641 -6.4605e-015 9.54166e-015 -3.57812e-015 -0.4882 -2.341 -0.6462 -0.0126063 0.00313239 0.00282702 -0.3575 -1.7167 -0.4742 -2.98177e-016 6.36111e-015 -1.59028e-015 -1.42 -1.8761 1.4223 -6.4605e-015 9.54166e-015 -3.57812e-015 -1.1471 -3.4929 2.6334 -3.55704e-007 -1.15145e-006 -4.00913e-006 -0.823 -2.3 1.6571 8.54774e-015 0 -3.08116e-015 -2.2603 21.606 7.4023 -1.17285 0.541646 2.17799 -13.5187 -1.1334 -5.0155 -42.7362 24.9705 -15.6731 0.0994 -28.0499 -0.2431 7.84552 -41.4156 22.4246 -0.0679 -23.3996 -0.1402 3.10193 0.851468 13.4817 -0.7932 -9.0691 2.5189 1.36897e-006 -2.76284e-006 -2.89917e-006 0.8272 -3.3923 0.5977 -7.62512e-006 6.42983e-006 7.41922e-006 0.565 -2.3158 0.4082 1.19271e-015 -3.18055e-015 -4.37326e-015 -0.916 -9.2044 0.2193 1.36897e-006 -2.76284e-006 -2.89917e-006 -0.0117 -4.1944 -0.0248 0.0129579 0.00232382 -7.84687e-005 -0.0071 -2.3249 -0.0142 -2.5787e-006 2.20128e-006 -2.14725e-007 -0.6113 -8.7231 -2.0637 1.36897e-006 -2.76284e-006 -2.89917e-006 0.1927 -3.8059 -0.2383 0.0163192 0.00303365 -0.000867666 0.1091 -2.1688 -0.1362 -4.20504e-006 2.52411e-006 9.86572e-007 0.6151 -8.0947 -3.564 1.36897e-006 -2.76284e-006 -2.89917e-006 0.4882 -2.341 -0.6462 0.0145985 0.0036897 -0.00326295 0.3574 -1.7166 -0.4742 -1.98785e-015 3.18055e-015 -9.93923e-016 1.4199 -1.8761 1.4221 1.36897e-006 -2.76284e-006 -2.89917e-006 1.1472 -3.4929 2.6336 -7.62512e-006 6.42983e-006 7.41922e-006 0.8229 -2.3 1.6571 1.19271e-015 -3.18055e-015 -4.37326e-015 -9.412 3.9771 -0.7758 -7.92688 1.81426 -0.631103 -0.7531 -40.938 0 1.12294 5.17747 -0.377045 1.77636e-015 -40.1986 1.77636e-015 -6.42102 5.99933 -0.584789 1.77636e-015 -4.4182 9.239 -2.65103e-006 -2.15285e-007 2.10249e-006 9.4119 3.9773 -0.7758 7.93025 1.82964 0.628225 0.7532 -40.9383 0 -1.1271 5.1677 0.375545 -1.77636e-015 -40.1986 -1.77636e-015 6.41929 5.9999 0.58285 -3.55271e-015 -4.4182 9.239 -5.4304e-024 1.95651e-007 1.59028e-015 
1.65749e-005 0.0274124 -47.6511 180 -89.9981 180 0 8.7983 -4.7612 -0.0627107 8.55894 -0.108405 0 8.0291 0.4195 -0.110716 17.118 -0.210807 -5.55112e-017 9.9351 -2.2114 -0.110716 17.1181 -0.210807 0 22.3885 -0.4656 3.27624e-007 17.9982 1.18146e-006 -0.0001 12.643 3.4389 3.94875e-008 8.99857 2.02308e-007 2.2603 21.606 7.4023 0.603949 0.432866 -3.89422 13.5163 -1.1332 -5.0146 3.07325 33.5957 25.3981 -0.0995 -28.05 -0.2431 -32.3369 -71.2848 -59.2569 0.0679 -23.3996 -0.1402 -5.906 1.87625 -23.7373 0.7932 -9.069 2.5189 -3.69465e-006 -2.48664e-006 1.45801e-006 -0.8272 -3.3923 0.5977 -1.57839e-007 2.80132e-006 -7.63291e-006 -0.5649 -2.3158 0.4082 -1.32553e-006 3.14711e-007 -2.46612e-006 0.9159 -9.2044 0.2193 -3.69465e-006 -2.48664e-006 1.45801e-006 0.0117 -4.1944 -0.0248 -0.0128119 0.00233565 7.8122e-005 0.0071 -2.3249 -0.0142 -8.25334e-006 9.76573e-006 -3.3573e-006 0.6113 -8.7231 -2.0637 -3.69465e-006 -2.48664e-006 1.45801e-006 -0.1927 -3.8059 -0.2383 -0.0160412 0.00300429 0.000844952 -0.1091 -2.1688 -0.1362 -2.99806e-006 -6.98827e-007 -2.80235e-006 -0.6151 -8.0947 -3.5641 -3.69465e-006 -2.48664e-006 1.45801e-006 -0.4882 -2.341 -0.6462 -0.0125829 0.00312416 0.00281558 -0.3575 -1.7167 -0.4742 -2.52831e-006 1.01495e-006 -3.70857e-006 -1.42 -1.8761 1.4223 -3.69465e-006 -2.48664e-006 1.45801e-006 -1.1471 -3.4929 2.6334 -1.57839e-007 2.80132e-006 -7.63291e-006 -0.823 -2.3 1.6571 -1.32553e-006 3.14711e-007 -2.46612e-006 -2.2603 21.606 7.4023 -1.43854 0.726637 -1.56488 -13.5187 -1.1334 -5.0155 -6.47107 34.3901 -18.449 0.0994 -28.0499 -0.2431 29.8806 -72.5929 56.2514 -0.0679 -23.3996 -0.1402 5.47265 1.36248 23.9037 -0.7932 -9.0691 2.5189 -1.59028e-015 -1.59028e-015 2.38542e-015 0.8272 -3.3923 0.5977 -1.98785e-015 -1.59028e-015 1.22253e-014 0.565 -2.3158 0.4082 -2.78299e-015 -4.77083e-015 1.5704e-014 -0.916 -9.2044 0.2193 -1.59028e-015 -1.59028e-015 2.38542e-015 -0.0117 -4.1944 -0.0248 0.0129656 0.00232136 -8.4156e-005 -0.0071 -2.3249 -0.0142 2.38542e-015 -3.18055e-015 4.37326e-015 -0.6113 -8.7231 -2.0637 -1.59028e-015 -1.59028e-015 2.38542e-015 0.1927 -3.8059 -0.2383 0.0163459 0.00304707 -0.000870424 0.1091 -2.1688 -0.1362 1.19271e-015 6.36111e-015 1.63997e-014 0.6151 -8.0947 -3.564 -1.59028e-015 -1.59028e-015 2.38542e-015 0.4882 -2.341 -0.6462 0.0145977 0.00369579 -0.00326981 0.3574 -1.7166 -0.4742 1.98785e-015 1.59028e-015 -7.95139e-015 1.4199 -1.8761 1.4221 -1.59028e-015 -1.59028e-015 2.38542e-015 1.1472 -3.4929 2.6336 -1.98785e-015 -1.59028e-015 1.22253e-014 0.8229 -2.3 1.6571 -2.78299e-015 -4.77083e-015 1.5704e-014 -9.412 3.9771 -0.7758 -16.6902 2.7415 -1.05257 -0.7531 -40.938 4.44089e-016 1.9989 7.8277 -0.589808 3.55271e-015 -40.1986 -3.55271e-015 -8.71012 12.557 -0.980536 3.55271e-015 -4.4182 9.239 1.14201e-006 1.24492e-005 4.32737e-006 9.4119 3.9773 -0.7758 16.6867 2.74029 1.04901 0.7532 -40.9383 -4.44089e-016 -2.00211 7.82945 0.586509 3.55271e-015 -40.1986 -8.88179e-016 8.70716 12.5561 0.977412 0 -4.4182 9.239 -4.35923e-006 1.27909e-005 -4.7517e-006 
-0.000216979 -4.11855 -51.5115 -180 -84.373 -180 0 8.7983 -4.7612 -0.0671548 9.22691 -0.114683 0 8.0291 0.4195 -0.117648 18.454 -0.222667 -5.55112e-017 9.9351 -2.2114 -0.117649 18.454 -0.222668 -1.11022e-016 22.3885 -0.4656 3.44742e-007 18.8932 1.32969e-006 -0.0001 12.643 3.4389 -5.7434e-008 9.24005 -2.08167e-007 2.2603 21.606 7.4023 0.93056 0.0689309 -3.51424 13.5163 -1.1332 -5.0146 -2.49266 34.359 25.875 -0.0995 -28.05 -0.2431 -42.8293 -74.8961 -71.4645 0.0679 -23.3996 -0.1402 -6.07201 1.84305 -25.0428 0.7932 -9.069 2.5189 7.95139e-016 7.95139e-016 -4.12478e-015 -0.8272 -3.3923 0.5977 1.59028e-015 7.95139e-016 2.43511e-015 -0.5649 -2.3158 0.4082 2.38542e-015 1.59028e-015 -3.77691e-015 0.9159 -9.2044 0.2193 7.95139e-016 7.95139e-016 -4.12478e-015 0.0117 -4.1944 -0.0248 -0.0128213 0.00232477 8.41861e-005 0.0071 -2.3249 -0.0142 1.59028e-015 7.95139e-016 9.39258e-015 0.6113 -8.7231 -2.0637 7.95139e-016 7.95139e-016 -4.12478e-015 -0.1927 -3.8059 -0.2383 -0.0160358 0.00299312 0.000857179 -0.1091 -2.1688 -0.1362 -1.01809e-005 4.22996e-006 -9.37695e-007 -0.6151 -8.0947 -3.5641 7.95139e-016 7.95139e-016 -4.12478e-015 -0.4882 -2.341 -0.6462 -0.0126091 0.0031144 0.00283059 -0.3575 -1.7167 -0.4742 -1.59028e-015 -7.95139e-016 2.6339e-015 -1.42 -1.8761 1.4223 7.95139e-016 7.95139e-016 -4.12478e-015 -1.1471 -3.4929 2.6334 1.59028e-015 7.95139e-016 2.43511e-015 -0.823 -2.3 1.6571 2.38542e-015 1.59028e-015 -3.77691e-015 -2.2603 21.606 7.4023 -1.73304 0.360705 -1.95236 -13.5187 -1.1334 -5.0155 -1.09359 35.6787 -18.7748 0.0994 -28.0499 -0.2431 40.6059 -76.4191 68.6368 -0.0679 -23.3996 -0.1402 5.62395 1.30028 25.2113 -0.7932 -9.0691 2.5189 6.34499e-032 1.59028e-015 -2.28602e-015 0.8272 -3.3923 0.5977 -0 0 8.94531e-016 0.565 -2.3158 0.4082 -7.95139e-016 0 -5.46658e-015 -0.916 -9.2044 0.2193 6.34499e-032 1.59028e-015 -2.28602e-015 -0.0117 -4.1944 -0.0248 0.0129596 0.00232634 -8.9289e-005 -0.0071 -2.3249 -0.0142 -2.38542e-015 1.59028e-015 5.86415e-015 -0.6113 -8.7231 -2.0637 6.34499e-032 1.59028e-015 -2.28602e-015 0.1927 -3.8059 -0.2383 0.0163371 0.00304053 -0.00087961 0.1091 -2.1688 -0.1362 7.95139e-016 -1.59028e-015 -4.77083e-015 0.6151 -8.0947 -3.564 6.34499e-032 1.59028e-015 -2.28602e-015 0.4882 -2.341 -0.6462 0.014564 0.00368108 -0.00326303 0.3574 -1.7166 -0.4742 -7.95139e-016 -1.59028e-015 -1.2921e-015 1.4199 -1.8761 1.4221 6.34499e-032 1.59028e-015 -2.28602e-015 1.1472 -3.4929 2.6336 -0 0 8.94531e-016 0.8229 -2.3 1.6571 -7.95139e-016 0 -5.46658e-015 -9.412 3.9771 -0.7758 -17.9436 2.72532 -1.11629 -0.7531 -40.938 4.44089e-016 2.09136 8.65661 -0.626223 -3.55271e-015 -40.1986 -4.44089e-016 -9.02334 13.3019 -1.05765 -3.55271e-015 -4.4182 9.239 -3.18126e-006 8.9752e-006 2.82178e-007 9.4119 3.9773 -0.7758 17.9031 2.60267 1.11929 0.7532 -40.9383 4.44089e-016 -2.07935 8.75409 0.621945 0 -40.1986 1.33227e-015 9.01926 13.2821 1.05673 0 -4.4182 9.239 2.36829e-006 9.6258e-007 2.56476e-006 
